<?xml version="1.0" encoding="UTF-8"?><svg xmlns="http://www.w3.org/2000/svg" xmlns:xlink="http://www.w3.org/1999/xlink" contentScriptType="text/ecmascript" width="375pt" zoomAndPan="magnify" contentStyleType="text/css" viewBox="0 0 375 374.999991" height="374.999991pt" preserveAspectRatio="xMidYMid meet" version="1.2"><defs><g/><clipPath xml:id="clip1" id="clip1"><path d="M 18.554688 101.128906 L 135.554688 101.128906 L 135.554688 218.128906 L 18.554688 218.128906 Z M 18.554688 101.128906 "/></clipPath><clipPath xml:id="clip2" id="clip2"><path d="M 50.03125 101.128906 L 104.078125 101.128906 C 105.109375 101.128906 106.136719 101.179688 107.164062 101.28125 C 108.1875 101.382812 109.207031 101.53125 110.21875 101.734375 C 111.230469 101.933594 112.226562 102.183594 113.214844 102.484375 C 114.203125 102.785156 115.171875 103.128906 116.121094 103.523438 C 117.074219 103.917969 118.007812 104.359375 118.914062 104.84375 C 119.824219 105.332031 120.707031 105.859375 121.566406 106.433594 C 122.421875 107.007812 123.25 107.621094 124.046875 108.273438 C 124.84375 108.925781 125.605469 109.617188 126.335938 110.347656 C 127.0625 111.078125 127.753906 111.839844 128.410156 112.636719 C 129.0625 113.433594 129.675781 114.261719 130.25 115.117188 C 130.820312 115.976562 131.351562 116.859375 131.835938 117.765625 C 132.324219 118.675781 132.761719 119.605469 133.15625 120.558594 C 133.550781 121.511719 133.898438 122.480469 134.199219 123.46875 C 134.496094 124.453125 134.746094 125.453125 134.949219 126.464844 C 135.148438 127.476562 135.300781 128.492188 135.402344 129.519531 C 135.503906 130.546875 135.554688 131.574219 135.554688 132.605469 L 135.554688 186.652344 C 135.554688 187.683594 135.503906 188.710938 135.402344 189.738281 C 135.300781 190.765625 135.148438 191.78125 134.949219 192.792969 C 134.746094 193.804688 134.496094 194.804688 134.199219 195.789062 C 133.898438 196.777344 133.550781 197.746094 133.15625 198.699219 C 132.761719 199.652344 132.324219 200.582031 131.835938 201.492188 C 131.351562 202.398438 130.820312 203.28125 130.25 204.140625 C 129.675781 204.996094 129.0625 205.824219 128.410156 206.621094 C 127.753906 207.417969 127.0625 208.179688 126.335938 208.910156 C 125.605469 209.640625 124.84375 210.332031 124.046875 210.984375 C 123.25 211.636719 122.421875 212.25 121.566406 212.824219 C 120.707031 213.398438 119.824219 213.925781 118.914062 214.414062 C 118.007812 214.898438 117.074219 215.339844 116.121094 215.734375 C 115.171875 216.128906 114.203125 216.472656 113.214844 216.773438 C 112.226562 217.074219 111.230469 217.324219 110.21875 217.523438 C 109.207031 217.726562 108.1875 217.875 107.164062 217.976562 C 106.136719 218.078125 105.109375 218.128906 104.078125 218.128906 L 50.03125 218.128906 C 49 218.128906 47.96875 218.078125 46.945312 217.976562 C 45.917969 217.875 44.898438 217.726562 43.890625 217.523438 C 42.878906 217.324219 41.878906 217.074219 40.894531 216.773438 C 39.90625 216.472656 38.9375 216.128906 37.984375 215.734375 C 37.03125 215.339844 36.101562 214.898438 35.191406 214.414062 C 34.28125 213.925781 33.398438 213.398438 32.542969 212.824219 C 31.683594 212.25 30.859375 211.636719 30.0625 210.984375 C 29.265625 210.332031 28.5 209.640625 27.773438 208.910156 C 27.042969 208.179688 26.351562 207.417969 25.699219 206.621094 C 25.042969 205.824219 24.429688 204.996094 23.859375 204.140625 C 23.285156 203.28125 22.757812 202.398438 22.269531 201.492188 C 21.785156 200.582031 21.34375 199.652344 20.949219 198.699219 C 20.554688 197.746094 20.207031 196.777344 19.910156 195.789062 C 19.609375 194.804688 19.359375 193.804688 19.160156 192.792969 C 18.957031 191.78125 18.804688 190.765625 18.707031 189.738281 C 18.605469 188.710938 18.554688 187.683594 18.554688 186.652344 L 18.554688 132.605469 C 18.554688 131.574219 18.605469 130.546875 18.707031 129.519531 C 18.804688 128.492188 18.957031 127.476562 19.160156 126.464844 C 19.359375 125.453125 19.609375 124.453125 19.910156 123.46875 C 20.207031 122.480469 20.554688 121.511719 20.949219 120.558594 C 21.34375 119.605469 21.785156 118.675781 22.269531 117.765625 C 22.757812 116.859375 23.285156 115.976562 23.859375 115.117188 C 24.429688 114.261719 25.042969 113.433594 25.699219 112.636719 C 26.351562 111.839844 27.042969 111.078125 27.773438 110.347656 C 28.5 109.617188 29.265625 108.925781 30.0625 108.273438 C 30.859375 107.621094 31.683594 107.007812 32.542969 106.433594 C 33.398438 105.859375 34.28125 105.332031 35.191406 104.84375 C 36.101562 104.359375 37.03125 103.917969 37.984375 103.523438 C 38.9375 103.128906 39.90625 102.785156 40.894531 102.484375 C 41.878906 102.183594 42.878906 101.933594 43.890625 101.734375 C 44.898438 101.53125 45.917969 101.382812 46.945312 101.28125 C 47.96875 101.179688 49 101.128906 50.03125 101.128906 Z M 50.03125 101.128906 "/></clipPath><linearGradient x1="21.351881" gradientTransform="matrix(0.00000000000000003,-0.495763,0.495763,0.00000000000000003,18.553679,218.128842)" xmlns:xlink="http://www.w3.org/1999/xlink" y1="-15.462293" x2="214.648927" gradientUnits="userSpaceOnUse" y2="251.461708" xlink:type="simple" xlink:actuate="onLoad" id="linear0" xlink:show="other" xml:id="linear0"><stop style="stop-color:rgb(0.0289917%,22.517395%,84.344482%);stop-opacity:1;" offset="0"/><stop style="stop-color:rgb(0.0305176%,22.479248%,84.165955%);stop-opacity:1;" offset="0.0078125"/><stop style="stop-color:rgb(0.0350952%,22.402954%,83.808899%);stop-opacity:1;" offset="0.015625"/><stop style="stop-color:rgb(0.038147%,22.328186%,83.453369%);stop-opacity:1;" offset="0.0234375"/><stop style="stop-color:rgb(0.0427246%,22.253418%,83.096313%);stop-opacity:1;" offset="0.03125"/><stop style="stop-color:rgb(0.0457764%,22.177124%,82.740784%);stop-opacity:1;" offset="0.0390625"/><stop style="stop-color:rgb(0.050354%,22.102356%,82.383728%);stop-opacity:1;" offset="0.046875"/><stop style="stop-color:rgb(0.0534058%,22.026062%,82.026672%);stop-opacity:1;" offset="0.0546875"/><stop style="stop-color:rgb(0.0579834%,21.951294%,81.671143%);stop-opacity:1;" offset="0.0625"/><stop style="stop-color:rgb(0.0610352%,21.876526%,81.314087%);stop-opacity:1;" offset="0.0703125"/><stop style="stop-color:rgb(0.0656128%,21.800232%,80.958557%);stop-opacity:1;" offset="0.078125"/><stop style="stop-color:rgb(0.0686646%,21.725464%,80.601501%);stop-opacity:1;" offset="0.0859375"/><stop style="stop-color:rgb(0.0732422%,21.650696%,80.244446%);stop-opacity:1;" offset="0.09375"/><stop style="stop-color:rgb(0.0762939%,21.574402%,79.888916%);stop-opacity:1;" offset="0.101563"/><stop style="stop-color:rgb(0.0808716%,21.499634%,79.53186%);stop-opacity:1;" offset="0.109375"/><stop style="stop-color:rgb(0.0854492%,21.42334%,79.176331%);stop-opacity:1;" offset="0.117187"/><stop style="stop-color:rgb(0.088501%,21.348572%,78.819275%);stop-opacity:1;" offset="0.125"/><stop style="stop-color:rgb(0.0930786%,21.273804%,78.463745%);stop-opacity:1;" offset="0.132812"/><stop style="stop-color:rgb(0.0961304%,21.19751%,78.106689%);stop-opacity:1;" offset="0.140625"/><stop style="stop-color:rgb(0.100708%,21.122742%,77.749634%);stop-opacity:1;" offset="0.148438"/><stop style="stop-color:rgb(0.10376%,21.047974%,77.394104%);stop-opacity:1;" offset="0.15625"/><stop style="stop-color:rgb(0.108337%,20.97168%,77.037048%);stop-opacity:1;" offset="0.164062"/><stop style="stop-color:rgb(0.111389%,20.896912%,76.681519%);stop-opacity:1;" offset="0.171875"/><stop style="stop-color:rgb(0.115967%,20.820618%,76.324463%);stop-opacity:1;" offset="0.179688"/><stop style="stop-color:rgb(0.119019%,20.74585%,75.967407%);stop-opacity:1;" offset="0.1875"/><stop style="stop-color:rgb(0.123596%,20.671082%,75.611877%);stop-opacity:1;" offset="0.195312"/><stop style="stop-color:rgb(0.126648%,20.594788%,75.254822%);stop-opacity:1;" offset="0.203125"/><stop style="stop-color:rgb(0.131226%,20.52002%,74.899292%);stop-opacity:1;" offset="0.210938"/><stop style="stop-color:rgb(0.134277%,20.445251%,74.542236%);stop-opacity:1;" offset="0.21875"/><stop style="stop-color:rgb(0.138855%,20.368958%,74.185181%);stop-opacity:1;" offset="0.226562"/><stop style="stop-color:rgb(0.143433%,20.294189%,73.829651%);stop-opacity:1;" offset="0.234375"/><stop style="stop-color:rgb(0.146484%,20.217896%,73.472595%);stop-opacity:1;" offset="0.242188"/><stop style="stop-color:rgb(0.151062%,20.143127%,73.117065%);stop-opacity:1;" offset="0.25"/><stop style="stop-color:rgb(0.154114%,20.068359%,72.76001%);stop-opacity:1;" offset="0.257812"/><stop style="stop-color:rgb(0.158691%,19.992065%,72.40448%);stop-opacity:1;" offset="0.265625"/><stop style="stop-color:rgb(0.161743%,19.917297%,72.047424%);stop-opacity:1;" offset="0.273438"/><stop style="stop-color:rgb(0.166321%,19.842529%,71.690369%);stop-opacity:1;" offset="0.28125"/><stop style="stop-color:rgb(0.169373%,19.766235%,71.334839%);stop-opacity:1;" offset="0.289062"/><stop style="stop-color:rgb(0.17395%,19.691467%,70.977783%);stop-opacity:1;" offset="0.296875"/><stop style="stop-color:rgb(0.177002%,19.615173%,70.622253%);stop-opacity:1;" offset="0.304688"/><stop style="stop-color:rgb(0.18158%,19.540405%,70.265198%);stop-opacity:1;" offset="0.3125"/><stop style="stop-color:rgb(0.184631%,19.465637%,69.908142%);stop-opacity:1;" offset="0.320312"/><stop style="stop-color:rgb(0.189209%,19.389343%,69.552612%);stop-opacity:1;" offset="0.328125"/><stop style="stop-color:rgb(0.192261%,19.314575%,69.195557%);stop-opacity:1;" offset="0.335938"/><stop style="stop-color:rgb(0.196838%,19.238281%,68.840027%);stop-opacity:1;" offset="0.34375"/><stop style="stop-color:rgb(0.19989%,19.163513%,68.482971%);stop-opacity:1;" offset="0.351562"/><stop style="stop-color:rgb(0.204468%,19.088745%,68.125916%);stop-opacity:1;" offset="0.359375"/><stop style="stop-color:rgb(0.209045%,19.012451%,67.770386%);stop-opacity:1;" offset="0.367188"/><stop style="stop-color:rgb(0.212097%,18.937683%,67.41333%);stop-opacity:1;" offset="0.375"/><stop style="stop-color:rgb(0.216675%,18.862915%,67.0578%);stop-opacity:1;" offset="0.382813"/><stop style="stop-color:rgb(0.219727%,18.786621%,66.700745%);stop-opacity:1;" offset="0.390625"/><stop style="stop-color:rgb(0.224304%,18.711853%,66.345215%);stop-opacity:1;" offset="0.398437"/><stop style="stop-color:rgb(0.227356%,18.635559%,65.988159%);stop-opacity:1;" offset="0.40625"/><stop style="stop-color:rgb(0.231934%,18.560791%,65.631104%);stop-opacity:1;" offset="0.414062"/><stop style="stop-color:rgb(0.234985%,18.486023%,65.275574%);stop-opacity:1;" offset="0.420009"/><stop style="stop-color:rgb(0.238037%,18.447876%,65.097046%);stop-opacity:1;" offset="0.421875"/><stop style="stop-color:rgb(0.239563%,18.409729%,64.918518%);stop-opacity:1;" offset="0.429687"/><stop style="stop-color:rgb(0.242615%,18.334961%,64.562988%);stop-opacity:1;" offset="0.4375"/><stop style="stop-color:rgb(0.247192%,18.260193%,64.205933%);stop-opacity:1;" offset="0.445312"/><stop style="stop-color:rgb(0.250244%,18.183899%,63.848877%);stop-opacity:1;" offset="0.453125"/><stop style="stop-color:rgb(0.254822%,18.109131%,63.493347%);stop-opacity:1;" offset="0.460937"/><stop style="stop-color:rgb(0.257874%,18.032837%,63.136292%);stop-opacity:1;" offset="0.46875"/><stop style="stop-color:rgb(0.262451%,17.958069%,62.780762%);stop-opacity:1;" offset="0.476562"/><stop style="stop-color:rgb(0.267029%,17.883301%,62.423706%);stop-opacity:1;" offset="0.484375"/><stop style="stop-color:rgb(0.270081%,17.807007%,62.06665%);stop-opacity:1;" offset="0.492187"/><stop style="stop-color:rgb(0.274658%,17.732239%,61.711121%);stop-opacity:1;" offset="0.5"/><stop style="stop-color:rgb(0.27771%,17.657471%,61.354065%);stop-opacity:1;" offset="0.507812"/><stop style="stop-color:rgb(0.282288%,17.581177%,60.998535%);stop-opacity:1;" offset="0.515625"/><stop style="stop-color:rgb(0.285339%,17.506409%,60.641479%);stop-opacity:1;" offset="0.523437"/><stop style="stop-color:rgb(0.289917%,17.430115%,60.28595%);stop-opacity:1;" offset="0.53125"/><stop style="stop-color:rgb(0.292969%,17.355347%,59.928894%);stop-opacity:1;" offset="0.539062"/><stop style="stop-color:rgb(0.297546%,17.280579%,59.571838%);stop-opacity:1;" offset="0.546875"/><stop style="stop-color:rgb(0.300598%,17.204285%,59.216309%);stop-opacity:1;" offset="0.554687"/><stop style="stop-color:rgb(0.305176%,17.129517%,58.859253%);stop-opacity:1;" offset="0.5625"/><stop style="stop-color:rgb(0.308228%,17.054749%,58.503723%);stop-opacity:1;" offset="0.570312"/><stop style="stop-color:rgb(0.312805%,16.978455%,58.146667%);stop-opacity:1;" offset="0.578125"/><stop style="stop-color:rgb(0.315857%,16.903687%,57.789612%);stop-opacity:1;" offset="0.579991"/><stop style="stop-color:rgb(0.318909%,16.86554%,57.61261%);stop-opacity:1;" offset="0.585937"/><stop style="stop-color:rgb(0.320435%,16.827393%,57.434082%);stop-opacity:1;" offset="0.59375"/><stop style="stop-color:rgb(0.325012%,16.752625%,57.077026%);stop-opacity:1;" offset="0.601562"/><stop style="stop-color:rgb(0.328064%,16.677856%,56.721497%);stop-opacity:1;" offset="0.609375"/><stop style="stop-color:rgb(0.332642%,16.601562%,56.364441%);stop-opacity:1;" offset="0.617187"/><stop style="stop-color:rgb(0.335693%,16.526794%,56.007385%);stop-opacity:1;" offset="0.625"/><stop style="stop-color:rgb(0.340271%,16.452026%,55.651855%);stop-opacity:1;" offset="0.632812"/><stop style="stop-color:rgb(0.343323%,16.375732%,55.2948%);stop-opacity:1;" offset="0.640625"/><stop style="stop-color:rgb(0.3479%,16.300964%,54.93927%);stop-opacity:1;" offset="0.648437"/><stop style="stop-color:rgb(0.350952%,16.22467%,54.582214%);stop-opacity:1;" offset="0.65625"/><stop style="stop-color:rgb(0.35553%,16.149902%,54.226685%);stop-opacity:1;" offset="0.664062"/><stop style="stop-color:rgb(0.358582%,16.075134%,53.869629%);stop-opacity:1;" offset="0.671875"/><stop style="stop-color:rgb(0.363159%,15.99884%,53.512573%);stop-opacity:1;" offset="0.679687"/><stop style="stop-color:rgb(0.366211%,15.924072%,53.157043%);stop-opacity:1;" offset="0.6875"/><stop style="stop-color:rgb(0.370789%,15.849304%,52.799988%);stop-opacity:1;" offset="0.695312"/><stop style="stop-color:rgb(0.37384%,15.77301%,52.444458%);stop-opacity:1;" offset="0.703125"/><stop style="stop-color:rgb(0.378418%,15.698242%,52.087402%);stop-opacity:1;" offset="0.710937"/><stop style="stop-color:rgb(0.38147%,15.621948%,51.730347%);stop-opacity:1;" offset="0.71875"/><stop style="stop-color:rgb(0.386047%,15.54718%,51.374817%);stop-opacity:1;" offset="0.726562"/><stop style="stop-color:rgb(0.390625%,15.472412%,51.017761%);stop-opacity:1;" offset="0.734375"/><stop style="stop-color:rgb(0.393677%,15.396118%,50.662231%);stop-opacity:1;" offset="0.742187"/><stop style="stop-color:rgb(0.398254%,15.328979%,50.341797%);stop-opacity:1;" offset="0.75"/><stop style="stop-color:rgb(0.39978%,15.299988%,50.19989%);stop-opacity:1;" offset="1"/></linearGradient><clipPath xml:id="clip3" id="clip3"><path d="M 38.855469 124.960938 L 59 124.960938 L 59 194.710938 L 38.855469 194.710938 Z M 38.855469 124.960938 "/></clipPath><clipPath xml:id="clip4" id="clip4"><path d="M 58 124.960938 L 78 124.960938 L 78 194.710938 L 58 194.710938 Z M 58 124.960938 "/></clipPath><clipPath xml:id="clip5" id="clip5"><path d="M 77 124.960938 L 97 124.960938 L 97 194.710938 L 77 194.710938 Z M 77 124.960938 "/></clipPath><clipPath xml:id="clip6" id="clip6"><path d="M 96 124.960938 L 115.320312 124.960938 L 115.320312 194.710938 L 96 194.710938 Z M 96 124.960938 "/></clipPath></defs><g xml:id="surface1" id="surface1"><g style="fill:rgb(0.389099%,15.289307%,50.19989%);fill-opacity:1;"><g transform="translate(147.589039, 179.160192)"><path style="stroke:none;" d="M 21.921875 -16.765625 L 21.8125 -16.765625 L 19.9375 -13.03125 L 14.96875 -3.984375 L 10.09375 -12.984375 L 8.15625 -17.015625 L 8.046875 -17.015625 L 8.046875 0 L 2.8125 0 L 2.8125 -25.546875 L 8.703125 -25.546875 L 14.96875 -13.578125 L 15.046875 -13.578125 L 21.21875 -25.546875 L 27.15625 -25.546875 L 27.15625 0 L 21.921875 0 Z M 21.921875 -16.765625 "/></g></g><g style="fill:rgb(0.389099%,15.289307%,50.19989%);fill-opacity:1;"><g transform="translate(177.562532, 179.160192)"><path style="stroke:none;" d="M 18.546875 0 L 16.71875 -6.078125 L 8.203125 -6.078125 L 6.375 0 L 0.734375 0 L 9.140625 -25.546875 L 16.03125 -25.546875 L 24.328125 0 Z M 12.515625 -20.5 L 12.328125 -20.5 L 9.515625 -10.796875 L 15.375 -10.796875 Z M 12.515625 -20.5 "/></g></g><g style="fill:rgb(0.389099%,15.289307%,50.19989%);fill-opacity:1;"><g transform="translate(202.631935, 179.160192)"><path style="stroke:none;" d="M 2.8125 0 L 2.8125 -25.546875 L 14.890625 -25.546875 C 16.085938 -25.546875 17.160156 -25.34375 18.109375 -24.9375 C 19.066406 -24.53125 19.878906 -23.972656 20.546875 -23.265625 C 21.210938 -22.566406 21.726562 -21.707031 22.09375 -20.6875 C 22.46875 -19.675781 22.65625 -18.570312 22.65625 -17.375 C 22.65625 -16.15625 22.46875 -15.046875 22.09375 -14.046875 C 21.726562 -13.046875 21.210938 -12.191406 20.546875 -11.484375 C 19.878906 -10.773438 19.066406 -10.21875 18.109375 -9.8125 C 17.160156 -9.414062 16.085938 -9.21875 14.890625 -9.21875 L 8.375 -9.21875 L 8.375 0 Z M 8.375 -14.046875 L 14.234375 -14.046875 C 15.066406 -14.046875 15.71875 -14.257812 16.1875 -14.6875 C 16.664062 -15.113281 16.90625 -15.742188 16.90625 -16.578125 L 16.90625 -18.1875 C 16.90625 -19.019531 16.664062 -19.648438 16.1875 -20.078125 C 15.71875 -20.503906 15.066406 -20.71875 14.234375 -20.71875 L 8.375 -20.71875 Z M 8.375 -14.046875 "/></g></g><g style="fill:rgb(0.389099%,15.289307%,50.19989%);fill-opacity:1;"><g transform="translate(226.640002, 179.160192)"><path style="stroke:none;" d="M 13.0625 0.4375 C 11.375 0.4375 9.835938 0.15625 8.453125 -0.40625 C 7.066406 -0.96875 5.882812 -1.800781 4.90625 -2.90625 C 3.925781 -4.019531 3.164062 -5.398438 2.625 -7.046875 C 2.09375 -8.691406 1.828125 -10.597656 1.828125 -12.765625 C 1.828125 -14.941406 2.09375 -16.851562 2.625 -18.5 C 3.164062 -20.144531 3.925781 -21.519531 4.90625 -22.625 C 5.882812 -23.738281 7.066406 -24.578125 8.453125 -25.140625 C 9.835938 -25.703125 11.375 -25.984375 13.0625 -25.984375 C 14.75 -25.984375 16.285156 -25.703125 17.671875 -25.140625 C 19.066406 -24.578125 20.25 -23.738281 21.21875 -22.625 C 22.195312 -21.519531 22.953125 -20.144531 23.484375 -18.5 C 24.023438 -16.851562 24.296875 -14.941406 24.296875 -12.765625 C 24.296875 -10.597656 24.023438 -8.691406 23.484375 -7.046875 C 22.953125 -5.398438 22.195312 -4.019531 21.21875 -2.90625 C 20.25 -1.800781 19.066406 -0.96875 17.671875 -0.40625 C 16.285156 0.15625 14.75 0.4375 13.0625 0.4375 Z M 13.0625 -4.5 C 14.75 -4.5 16.0625 -5.046875 17 -6.140625 C 17.9375 -7.242188 18.40625 -8.820312 18.40625 -10.875 L 18.40625 -14.671875 C 18.40625 -16.722656 17.9375 -18.296875 17 -19.390625 C 16.0625 -20.492188 14.75 -21.046875 13.0625 -21.046875 C 11.375 -21.046875 10.0625 -20.492188 9.125 -19.390625 C 8.1875 -18.296875 7.71875 -16.722656 7.71875 -14.671875 L 7.71875 -10.875 C 7.71875 -8.820312 8.1875 -7.242188 9.125 -6.140625 C 10.0625 -5.046875 11.375 -4.5 13.0625 -4.5 Z M 13.0625 -4.5 "/></g></g><g style="fill:rgb(0.389099%,15.289307%,50.19989%);fill-opacity:1;"><g transform="translate(252.770741, 179.160192)"><path style="stroke:none;" d="M 13.46875 -20.609375 L 13.46875 0 L 7.90625 0 L 7.90625 -20.609375 L 0.984375 -20.609375 L 0.984375 -25.546875 L 20.375 -25.546875 L 20.375 -20.609375 Z M 13.46875 -20.609375 "/></g></g><g style="fill:rgb(0.389099%,15.289307%,50.19989%);fill-opacity:1;"><g transform="translate(274.143783, 179.160192)"><path style="stroke:none;" d="M 2.8125 0 L 2.8125 -25.546875 L 20.203125 -25.546875 L 20.203125 -20.609375 L 8.375 -20.609375 L 8.375 -15.375 L 18.515625 -15.375 L 18.515625 -10.46875 L 8.375 -10.46875 L 8.375 -4.9375 L 20.203125 -4.9375 L 20.203125 0 Z M 2.8125 0 "/></g></g><g style="fill:rgb(0.389099%,15.289307%,50.19989%);fill-opacity:1;"><g transform="translate(296.358571, 179.160192)"><path style="stroke:none;" d="M 13.140625 0.4375 C 11.398438 0.4375 9.835938 0.164062 8.453125 -0.375 C 7.066406 -0.925781 5.882812 -1.742188 4.90625 -2.828125 C 3.925781 -3.921875 3.164062 -5.273438 2.625 -6.890625 C 2.09375 -8.515625 1.828125 -10.414062 1.828125 -12.59375 C 1.828125 -14.738281 2.09375 -16.644531 2.625 -18.3125 C 3.164062 -19.988281 3.925781 -21.390625 4.90625 -22.515625 C 5.882812 -23.648438 7.066406 -24.507812 8.453125 -25.09375 C 9.835938 -25.6875 11.398438 -25.984375 13.140625 -25.984375 C 15.503906 -25.984375 17.453125 -25.5 18.984375 -24.53125 C 20.523438 -23.570312 21.757812 -22.054688 22.6875 -19.984375 L 17.890625 -17.484375 C 17.546875 -18.566406 17.015625 -19.429688 16.296875 -20.078125 C 15.578125 -20.722656 14.523438 -21.046875 13.140625 -21.046875 C 11.503906 -21.046875 10.191406 -20.515625 9.203125 -19.453125 C 8.210938 -18.390625 7.71875 -16.847656 7.71875 -14.828125 L 7.71875 -10.71875 C 7.71875 -8.695312 8.210938 -7.15625 9.203125 -6.09375 C 10.191406 -5.03125 11.503906 -4.5 13.140625 -4.5 C 14.503906 -4.5 15.59375 -4.867188 16.40625 -5.609375 C 17.226562 -6.359375 17.832031 -7.257812 18.21875 -8.3125 L 22.765625 -5.671875 C 21.804688 -3.722656 20.550781 -2.21875 19 -1.15625 C 17.457031 -0.09375 15.503906 0.4375 13.140625 0.4375 Z M 13.140625 0.4375 "/></g></g><g style="fill:rgb(0.389099%,15.289307%,50.19989%);fill-opacity:1;"><g transform="translate(320.183646, 179.160192)"><path style="stroke:none;" d="M 18.546875 0 L 16.71875 -6.078125 L 8.203125 -6.078125 L 6.375 0 L 0.734375 0 L 9.140625 -25.546875 L 16.03125 -25.546875 L 24.328125 0 Z M 12.515625 -20.5 L 12.328125 -20.5 L 9.515625 -10.796875 L 15.375 -10.796875 Z M 12.515625 -20.5 "/></g></g><g clip-rule="nonzero" clip-path="url(#clip1)"><g clip-rule="nonzero" clip-path="url(#clip2)"><path style=" stroke:none;fill-rule:nonzero;fill:url(#linear0);" d="M 18.554688 218.128906 L 135.554688 218.128906 L 135.554688 101.128906 L 18.554688 101.128906 Z M 18.554688 218.128906 "/></g></g><g clip-rule="nonzero" clip-path="url(#clip3)"><path style=" stroke:none;fill-rule:nonzero;fill:rgb(100%,100%,100%);fill-opacity:1;" d="M 38.996094 194.980469 L 58.023438 171.617188 L 58.023438 124.960938 L 38.910156 148.429688 Z M 38.996094 194.980469 "/></g><g clip-rule="nonzero" clip-path="url(#clip4)"><path style=" stroke:none;fill-rule:nonzero;fill:rgb(75.289917%,74.899292%,94.898987%);fill-opacity:1;" d="M 58.023438 124.960938 L 77.085938 148.324219 L 77.085938 194.980469 L 58.023438 171.511719 Z M 58.023438 124.960938 "/></g><g clip-rule="nonzero" clip-path="url(#clip5)"><path style=" stroke:none;fill-rule:nonzero;fill:rgb(85.879517%,83.529663%,95.689392%);fill-opacity:1;" d="M 77.171875 194.980469 L 96.199219 171.617188 L 96.199219 124.960938 L 77.085938 148.429688 Z M 77.171875 194.980469 "/></g><g clip-rule="nonzero" clip-path="url(#clip6)"><path style=" stroke:none;fill-rule:nonzero;fill:rgb(63.529968%,52.938843%,92.549133%);fill-opacity:1;" d="M 96.199219 124.960938 L 115.265625 148.324219 L 115.265625 194.980469 L 96.199219 171.511719 Z M 96.199219 124.960938 "/></g></g></svg>